Coordinates
version=1
nRows=21
nColumns=12
inDegrees=yes

Units are S.I. units (second, meters, Newtons, ...)
Angles are in degrees

endheader
time	SC_y	SC_z	SC_x	AC_y	AC_z	AC_x	GH_y	GH_z	GH_yy	EL_x	PS_y
       0.0              -42.19         -2.831          72.89           66.8           2.59          5.086          -73.3          86.74          159.5          103.5          77.56
  0.005995              -42.19         -2.826          72.88           66.8          2.587          5.082         -73.31          86.73          159.5          103.5          77.55
   0.01199              -42.19         -2.819          72.87          66.79          2.584          5.079         -73.31          86.73          159.5          103.5          77.54
   0.01799              -42.18         -2.813          72.86          66.79           2.58          5.075         -73.32          86.72          159.5          103.5          77.53
   0.02398              -42.18         -2.806          72.85          66.78          2.576          5.071         -73.33          86.71          159.5          103.5          77.52
   0.02998              -42.18         -2.798          72.84          66.78          2.572          5.067         -73.34           86.7          159.4          103.5          77.51
   0.03597              -42.17          -2.79          72.83          66.77          2.567          5.062         -73.35          86.69          159.4          103.4           77.5
   0.04197              -42.17         -2.782          72.81          66.77          2.563          5.057         -73.36          86.68          159.4          103.4          77.49
   0.04796              -42.17         -2.773           72.8          66.76          2.558          5.052         -73.37          86.67          159.4          103.4          77.47
   0.05396              -42.16         -2.763          72.79          66.76          2.552          5.046         -73.39          86.66          159.3          103.4          77.46
   0.05995              -42.16         -2.752          72.77          66.75          2.546           5.04          -73.4          86.65          159.3          103.4          77.45
   0.06595              -42.15         -2.741          72.75          66.74           2.54          5.033         -73.42          86.63          159.3          103.3          77.43
   0.07194              -42.14         -2.729          72.74          66.73          2.533          5.026         -73.43          86.62          159.2          103.3          77.41
   0.07794              -42.14         -2.716          72.72          66.73          2.526          5.019         -73.45           86.6          159.2          103.3          77.39
   0.08393              -42.13         -2.701          72.69          66.72          2.517           5.01         -73.47          86.58          159.1          103.3          77.37
   0.08993              -42.12         -2.686          72.67          66.71          2.509          5.002         -73.49          86.56          159.1          103.2          77.35
   0.09592              -42.12         -2.669          72.65          66.69          2.499          4.992         -73.51          86.54          159.0          103.2          77.33
    0.1019              -42.11         -2.651          72.62          66.68          2.489          4.981         -73.53          86.52          159.0          103.2           77.3
    0.1079               -42.1         -2.631          72.59          66.67          2.478           4.97         -73.56           86.5          158.9          103.1          77.28
    0.1139              -42.09         -2.609          72.56          66.65          2.466          4.957         -73.59          86.47          158.8          103.1          77.24
    0.1199              -42.07         -2.585          72.52          66.64          2.452          4.943         -73.62          86.44          158.8          103.1          77.21
